<svg width="99" height="30" viewBox="0 0 99 30" fill="none" xmlns="http://www.w3.org/2000/svg">
<path d="M95.7943 19.5034H90.0253V9.07784H95.7943V19.5034ZM98.9994 5.81543H86.749V22.6949H95.7943V26.7374H13.0332V29.9289H98.9994V5.81543Z" fill="white"/>
<path d="M22.0082 19.5034H16.2391V9.07784H22.0082V19.5034ZM25.2133 5.81543H12.9629V22.6949H25.2133V5.81543Z" fill="white"/>
<path d="M8.54676 26.7376H3.20504V9.00709H8.54676V26.7376ZM3.20504 0H0V30H11.7518V5.8156H3.20504V0Z" fill="white"/>
<path d="M33.3335 19.5034H26.4961V22.7658H36.5385V12.1275H29.7011V9.07784H36.5385V5.81543H26.4961V15.319H33.3335V19.5034Z" fill="white"/>
<path d="M51.4941 22.766V9.07801H56.4797V22.766H59.756V5.8156H51.4941V0H48.2178V19.5035H41.0243V9.07801H45.725V5.8156H37.748V22.766H51.4941Z" fill="white"/>
<path d="M72.6474 5.81543H69.3711V19.5034H64.2431V5.81543H60.9668V22.7658H72.6474V5.81543Z" fill="white"/>
<path d="M77.0644 9.07784H82.2637V22.7658H85.5399V5.81543H73.8594V22.7658H77.0644V9.07784Z" fill="white"/>
</svg>
