<?xml version="1.0" encoding="utf-8"?>
<!-- Generator: Adobe Illustrator 23.0.2, SVG Export Plug-In . SVG Version: 6.00 Build 0)  -->
<svg version="1.1" id="Слой_1" xmlns="http://www.w3.org/2000/svg" xmlns:xlink="http://www.w3.org/1999/xlink" x="0px" y="0px"
	 viewBox="0 0 212.5 33.2" style="enable-background:new 0 0 212.5 33.2;" xml:space="preserve">
<style type="text/css">
	.st0{fill-rule:evenodd;clip-rule:evenodd;fill:#0E0F0F;}
	.st1{fill-rule:evenodd;clip-rule:evenodd;fill:#D24A45;}
	.st2{fill-rule:evenodd;clip-rule:evenodd;fill:#E0E35A;}
	.st3{fill-rule:evenodd;clip-rule:evenodd;fill:#D24A44;}
	.st4{fill:#FFFFFF;}
	.st5{fill:#FDFEFE;}
</style>
<g>
	<polygon class="st0" points="78.7,0 64.5,0.9 64.5,24.9 78.7,33.2 92.9,24.9 93,0.9 	"/>
	<path class="st1" d="M65.5,1.6l13.3-0.8c4.5,0.3,9.1,0.6,13.6,0.9l0,22.8c-4.5,2.7-9.1,5.4-13.6,8.1c-4.5-2.7-9.1-5.4-13.6-8.1
		l0-22.8L65.5,1.6z M78.7,1.4L65.8,2.2l0,21.7l12.9,7.7L91.6,24l0-21.7L78.7,1.4z"/>
	<polygon class="st2" points="67.1,3.4 67.1,23.3 78,29.7 78,22.1 73.9,19.6 73.8,3 	"/>
	<polygon class="st3" points="90.3,3.4 90.3,23.3 79.4,29.7 79.4,22.1 83.6,19.6 83.5,3 	"/>
</g>
<path class="st4" d="M19.2,3.3c2.1,0,3.6,0.3,4.5,0.9c1.4,0.9,2.1,2.6,2.1,5.2c0,1.1-0.2,2.1-0.6,2.8s-0.9,1.3-1.6,1.6
	c2,0.9,3,2.6,3,5.1c0,2.2-0.5,3.7-1.5,4.6c-1,0.9-2.7,1.4-5.1,1.4H0V3.3H19.2z M6.6,11.4h11.7c0.5,0,0.9-0.1,1.2-0.3
	c0.3-0.2,0.4-0.6,0.4-1.1c0-0.5-0.1-0.9-0.4-1.1c-0.3-0.2-0.7-0.3-1.2-0.3H6.6V11.4z M6.6,19.6H18c1.3,0,1.9-0.5,1.9-1.6
	c0-0.7-0.2-1.1-0.5-1.4c-0.3-0.3-0.8-0.4-1.4-0.4H6.6V19.6z"/>
<path class="st5" d="M59.5,14c0,5.2-0.6,8.3-1.9,9.4c-1.4,1.1-5.5,1.6-12.3,1.6c-5,0-8.3-0.2-9.8-0.5c-2-0.5-3.2-1.5-3.7-3
	c-0.4-1.2-0.6-3.7-0.6-7.5c0-5.2,0.6-8.3,1.9-9.4C34.4,3.6,38.5,3,45.3,3c6.8,0,10.9,0.6,12.3,1.6C58.8,5.7,59.5,8.8,59.5,14z
	 M37.7,14c0,2.7,0.3,4.3,0.9,4.8c0.6,0.4,2.8,0.7,6.6,0.7c3.8,0,6-0.2,6.6-0.7c0.6-0.5,0.9-2,0.9-4.8c0-2.8-0.3-4.4-0.9-4.8
	c-0.6-0.5-2.8-0.7-6.6-0.7c-3.8,0-6,0.2-6.6,0.7C38.1,9.7,37.7,11.3,37.7,14z"/>
<path class="st5" d="M98,3.3h6.6v15.9h15v5.5H98V3.3z"/>
<path class="st5" d="M124.7,24.7V3.3h18.5c3.8,0,6.2,0.8,7.4,2.3c1.1,1.4,1.7,4.2,1.7,8.5c0,4.2-0.5,7.1-1.7,8.4
	c-1.2,1.5-3.7,2.3-7.5,2.3H124.7z M131.3,19.2H142c1.4,0,2.4-0.4,2.9-1.1c0.5-0.7,0.8-2.1,0.8-4.1c0-2-0.3-3.4-0.8-4.1
	c-0.5-0.7-1.5-1.1-2.9-1.1h-10.8V19.2z"/>
<path class="st5" d="M157.7,24.7V3.3h23.1v5.2h-16.5v3H180v5.2h-15.8v2.9h16.5v5.2H157.7z"/>
<path class="st5" d="M186.7,3.3h19.2c2.4,0,4,0.4,5,1.3c1.1,0.9,1.6,2.6,1.6,5c0,1.8-0.2,3.2-0.7,4.1c-0.4,0.9-1.2,1.5-2.3,2
	c1.2,0.5,2,1,2.4,1.6c0.4,0.5,0.6,1.5,0.6,2.8v4.8h-6.6v-3.8c0-0.6-0.2-1-0.5-1.4c-0.4-0.5-1-0.8-1.7-0.8h-10.4v6h-6.6V3.3z
	 M193.3,8.8v4.4h10.6c0.7,0,1.2-0.2,1.5-0.5c0.3-0.3,0.5-0.9,0.5-1.7c0-0.8-0.2-1.4-0.5-1.7c-0.3-0.3-0.8-0.5-1.5-0.5H193.3z"/>
</svg>
