<?xml version="1.0"?>
<svg xmlns="http://www.w3.org/2000/svg" xmlns:xlink="http://www.w3.org/1999/xlink" xmlns:svgjs="http://svgjs.com/svgjs" version="1.1" width="512" height="512" x="0" y="0" viewBox="0 0 512 512" style="enable-background:new 0 0 512 512" xml:space="preserve" class=""><g><g xmlns="http://www.w3.org/2000/svg"><g><path d="m485.317 306.719c16.708-11.5 26.683-30.461 26.683-50.719s-9.975-39.219-26.682-50.719c-6.499-4.474-8.755-12.892-5.363-20.016 8.719-18.313 7.877-39.721-2.252-57.265-10.13-17.543-28.248-28.976-48.467-30.583-7.865-.625-14.028-6.787-14.652-14.653-1.609-20.22-13.042-38.338-30.584-48.467-17.545-10.13-38.953-10.97-57.264-2.252-7.124 3.393-15.542 1.137-20.016-5.363-11.501-16.707-30.463-26.682-50.72-26.682s-39.219 9.975-50.719 26.682c-4.475 6.5-12.895 8.754-20.016 5.363-18.312-8.717-39.719-7.877-57.264 2.252-17.543 10.128-28.976 28.246-30.583 48.468-.625 7.865-6.787 14.027-14.652 14.652-20.22 1.607-38.339 13.04-48.469 30.583-10.129 17.544-10.97 38.952-2.252 57.265 3.391 7.124 1.136 15.542-5.362 20.016-16.708 11.5-26.683 30.461-26.683 50.719s9.975 39.219 26.682 50.719c6.499 4.474 8.755 12.892 5.363 20.016-8.719 18.313-7.877 39.721 2.252 57.265 10.13 17.544 28.248 28.976 48.467 30.583 7.865.625 14.028 6.787 14.652 14.653 1.608 20.221 13.041 38.339 30.583 48.466 17.543 10.13 38.952 10.971 57.264 2.252 7.126-3.39 15.542-1.136 20.016 5.363 11.502 16.708 30.464 26.683 50.721 26.683s39.219-9.975 50.719-26.682c4.475-6.499 12.895-8.754 20.016-5.363 8.052 3.833 17.018 5.907 25.926 5.998h.078c4.097 0 7.439-3.3 7.48-7.407.042-4.132-3.275-7.516-7.406-7.557-6.749-.068-13.542-1.64-19.645-4.545-13.8-6.572-30.108-2.201-38.775 10.39-8.708 12.65-23.06 20.203-38.392 20.203s-29.684-7.553-38.392-20.203c-8.666-12.59-24.973-16.961-38.775-10.39-13.866 6.602-30.072 5.966-43.349-1.701-13.277-7.665-21.931-21.381-23.148-36.691-1.21-15.237-13.147-27.176-28.386-28.387-15.309-1.216-29.026-9.869-36.692-23.147s-8.301-29.484-1.7-43.35c6.571-13.801 2.201-30.109-10.39-38.775-12.65-8.707-20.203-23.06-20.203-38.392s7.553-29.685 20.204-38.392c12.59-8.666 16.959-24.974 10.389-38.775-6.601-13.866-5.965-30.072 1.7-43.35 7.667-13.278 21.383-21.931 36.692-23.147 15.238-1.21 27.176-13.148 28.386-28.385 1.217-15.31 9.87-29.027 23.148-36.693 13.276-7.665 29.483-8.302 43.349-1.7 13.803 6.571 30.109 2.2 38.775-10.39 8.708-12.65 23.06-20.203 38.392-20.203s29.684 7.553 38.392 20.203c8.666 12.589 24.973 16.961 38.775 10.39 13.867-6.602 30.072-5.965 43.349 1.7 13.277 7.666 21.931 21.382 23.148 36.692 1.21 15.237 13.148 27.176 28.386 28.386 15.309 1.216 29.026 9.87 36.692 23.147 7.666 13.278 8.301 29.484 1.7 43.35-6.571 13.801-2.201 30.109 10.39 38.775 12.65 8.707 20.203 23.06 20.203 38.392s-7.553 29.685-20.204 38.392c-12.59 8.666-16.959 24.974-10.389 38.775 6.601 13.866 5.965 30.072-1.7 43.35-7.667 13.278-21.383 21.931-36.692 23.147-15.239 1.211-27.176 13.149-28.386 28.386-1.065 13.405-7.824 25.675-18.544 33.664-3.314 2.469-3.999 7.158-1.529 10.471 2.469 3.313 7.157 3.997 10.471 1.528 14.176-10.565 23.114-26.776 24.521-44.479.625-7.865 6.787-14.027 14.652-14.652 20.219-1.606 38.338-13.039 48.467-30.583s10.97-38.952 2.252-57.265c-3.392-7.124-1.137-15.542 5.362-20.016z" fill="#ffd618" data-original="#000000" style="" class=""/><path d="m103.045 274.672c-4.133 0-7.482 3.35-7.482 7.483v65.929c0 5.578 4.538 10.116 10.116 10.116h66.636l17.192 10.176c24.261 14.36 51.988 21.95 80.182 21.95h83.794c17.472 0 31.687-14.215 31.687-31.686 0-6.626-2.044-12.783-5.535-17.874 13.366-3.718 23.202-15.998 23.202-30.533 0-7.114-2.357-13.688-6.33-18.982 11.669-4.678 19.931-16.106 19.931-29.426 0-13.314-8.254-24.736-19.913-29.419 4.338-5.768 6.553-12.786 6.292-20.138-.599-16.838-15.065-30.537-32.247-30.537h-56.005c-1.797 0-3.431-.838-4.484-2.301-1.035-1.439-1.308-3.222-.749-4.89 2.999-8.948 5.029-17.579 6.036-25.656 1.802-14.476-2.712-29.059-12.385-40.01-9.712-10.996-23.696-17.303-38.366-17.303-9.214 0-17.473 5.509-21.04 14.035.001.001-.001 0-.001.002-1.181 2.821-1.78 5.813-1.78 8.892-.004 35.615-11.522 63.688-34.232 83.438-15.599 13.566-31.493 18.455-34.289 19.24h-67.594c-5.578 0-10.116 4.538-10.116 10.115v20.359c0 4.132 3.349 7.482 7.482 7.482s7.482-3.35 7.482-7.482v-15.51h56.58v111.092h-56.58v-61.08c-.001-4.132-3.351-7.482-7.484-7.482zm79.028-44.611c7.445-2.654 21.087-8.631 34.728-20.329 18.225-15.63 39.952-44.84 39.958-95.232 0-1.085.208-2.134.62-3.115 0 0 .001-.001.001-.002 1.232-2.945 4.072-4.849 7.236-4.849 10.381 0 20.277 4.463 27.15 12.244 6.834 7.737 10.023 18.036 8.751 28.255-.884 7.09-2.692 14.744-5.375 22.75-2.107 6.29-1.09 12.991 2.792 18.386 3.841 5.338 10.057 8.525 16.63 8.525h56.005c9.219 0 16.976 7.224 17.292 16.104.163 4.591-1.499 8.934-4.677 12.228-3.181 3.296-7.454 5.111-12.033 5.111h-20.786c-4.133 0-7.482 3.35-7.482 7.483 0 4.132 3.35 7.482 7.482 7.482h34.387c9.22 0 16.721 7.501 16.721 16.721s-7.501 16.721-16.721 16.721h-44.825c-4.133 0-7.482 3.35-7.482 7.483s3.349 7.482 7.482 7.482h31.224c9.221 0 16.722 7.501 16.722 16.722 0 9.22-7.501 16.721-16.722 16.721h-37.472c-4.133 0-7.482 3.35-7.482 7.482s3.349 7.483 7.482 7.483h19.804c9.221 0 16.722 7.501 16.722 16.721s-7.501 16.721-16.722 16.721h-83.794c-25.513 0-50.605-6.869-72.559-19.863l-15.057-8.912v-116.523z" fill="#ffd618" data-original="#000000" style="" class=""/></g></g></g></svg>
